<?xml version="1.0" encoding="utf-8"?>
<!-- Generator: Adobe Illustrator 20.0.0, SVG Export Plug-In . SVG Version: 6.00 Build 0)  -->
<svg version="1.1" id="Layer_1" xmlns="http://www.w3.org/2000/svg" xmlns:xlink="http://www.w3.org/1999/xlink" x="0px" y="0px"
	 viewBox="0 0 261.6 267" style="enable-background:new 0 0 261.6 267;" xml:space="preserve">
<style type="text/css">
	.st0{fill:#FF6E40;}
</style>
<polygon class="st0" points="251.9,213.6 198.8,185 198.6,123.2 251.6,153.5 "/>
<polygon class="st0" points="188.8,185.1 136,215.9 135.7,154.2 188.6,123.3 "/>
<polygon class="st0" points="130.4,84.9 182.9,114.8 130.5,145.4 78,115.4 "/>
<polygon class="st0" points="125.6,154.7 125.9,215.9 72.8,185.6 72.6,124.4 "/>
<polygon class="st0" points="188.5,106.5 135.4,76.2 135.4,14.6 188.2,44.8 "/>
<polygon class="st0" points="125.4,14.3 125.4,76.2 72.5,107 72.2,45.3 "/>
<polygon class="st0" points="62.6,124.4 62.8,185.5 9.9,213 9.7,155.2 "/>
<polygon class="st0" points="68.1,255.5 11.8,223.3 67.7,194.2 121,224.6 "/>
<polygon class="st0" points="141.6,224.2 194,193.7 247.9,222.8 194.1,254.2 "/>
</svg>
